<?xml version="1.0" encoding="UTF-8"?>
<svg id="a" data-name="Layer 1" xmlns="http://www.w3.org/2000/svg" viewBox="0 0 26.52 22.9">
  <defs>
    <style>
      .b {
        fill: blue;
        stroke-width: 0px;
      }
    </style>
  </defs>
  <path class="b" d="M11.02,7.02c-.02.22-.03.41-.03.57s-.03.28-.1.39c-.22.36-.27.65-.13.86.14.21.36.41.67.58.7.4,1.22.92,1.53,1.59s.6,1.35.84,2.05c.19.52.33,1.04.43,1.57.09.53.17,1.07.22,1.62.09,1.19-.17,2.09-.76,2.72-.59.63-1.5.93-2.72.92-.33-.02-.64.02-.93.1-.29.09-.52.27-.67.54-.31.55-.7.96-1.17,1.24-.47.28-.98.48-1.51.62-.53.14-1.07.27-1.62.41-.53.12-1.06.14-1.57.06-.52-.08-1.03-.15-1.55-.22-.33-.05-.57-.18-.72-.4s-.27-.48-.33-.79c-.17-.91-.3-1.83-.37-2.74s-.15-1.84-.22-2.77C.16,13.89.07,11.85.02,9.83s0-4.05.18-6.08c.05-.57.09-1.03.13-1.39.03-.36.12-.66.27-.89.15-.23.41-.44.79-.62.38-.18.93-.37,1.65-.58,1.32-.39,2.58-.35,3.76.14,1.19.49,2.12,1.35,2.81,2.56.36.64.69,1.29.98,1.97.29.68.44,1.37.44,2.08ZM3.7,22.4c.6.09,1.22.05,1.87-.1.64-.15,1.28-.35,1.92-.59.7-.27,1.15-.74,1.34-1.39.4-1.22.43-2.41.1-3.56-.38-1.27-.78-2.28-1.21-3.04-.43-.76-.99-1.3-1.68-1.64s-1.62-.49-2.81-.48c-.1,0-.2,0-.3-.03-.09-.02-.15-.09-.17-.21,0-.17.06-.28.18-.31.12-.03.24-.06.36-.08,1.15-.19,2.11-.61,2.87-1.26.76-.65,1.39-1.46,1.87-2.42.34-.62.5-1.24.48-1.88s-.25-1.22-.68-1.75c-.46-.58-1.04-1.06-1.74-1.42-.7-.36-1.44-.58-2.23-.66-.79-.08-1.57.03-2.35.32-.52.22-.77.57-.77,1.03-.02.86-.09,1.72-.22,2.58s-.18,1.72-.14,2.58c.03.74.05,1.47.05,2.2s0,1.47.03,2.2c.07,1.32.16,2.65.27,3.97.11,1.32.26,2.65.45,3.97.09.6.18,1.03.3,1.29.11.26.33.42.66.49.33.07.84.13,1.55.18ZM1.36,6.53c-.02-.29,0-.56.03-.81.03-.25,0-.5-.08-.76-.09-.21-.03-.37.18-.49.34-.21.69-.4,1.03-.57.34-.17.73-.25,1.16-.23.41.02.76.15,1.03.41.27.26.46.58.54.98.09.4.05.82-.1,1.26-.21.58-.53,1.05-.97,1.39-.44.34-.95.58-1.53.72-.89.22-1.34-.14-1.34-1.08,0-.16,0-.3.01-.44,0-.14.02-.27.04-.39ZM2.54,6.35h-.05c.02-.22.03-.44.04-.67,0-.22.02-.45.04-.67v-.21c0-.07-.04-.11-.13-.13-.1-.03-.19-.03-.26.01-.07.04-.11.11-.13.19-.09.45-.17.9-.26,1.35s-.08.92.03,1.4c.03.09.08.17.13.25.05.08.14.11.26.09.14-.02.21-.07.23-.15.02-.09.03-.17.05-.26.02-.21.03-.41.03-.61s0-.4.03-.61ZM1.87,1.17c.5-.03.98-.05,1.44-.05s.94.06,1.42.18c1.68.4,2.87,1.13,3.56,2.19.69,1.07.81,2.37.36,3.92-.07.28.02.5.26.67.41.27.75.35,1.02.22s.43-.43.5-.91c.09-.65,0-1.26-.24-1.83-.25-.57-.49-1.14-.73-1.73-.38-.95-.96-1.72-1.75-2.33-.79-.61-1.7-.96-2.72-1.06-1.02-.09-2.06.15-3.11.74ZM2.67,16.53c.02-.19.04-.4.06-.63s.02-.47-.01-.71c-.03-.4.05-.67.26-.82.21-.16.47-.24.8-.26.65-.07,1.18,0,1.58.21.4.21.76.58,1.07,1.13.24.45.47.89.68,1.34s.29.95.22,1.49c-.05.48-.23.93-.54,1.34-.31.41-.7.73-1.16.97-.46.23-.95.32-1.47.27-.48-.05-.83-.18-1.04-.4s-.34-.56-.37-1.04c-.02-.46-.03-.93-.04-1.41,0-.47-.02-.97-.04-1.48ZM4.66,5.88c.05-.48,0-.89-.13-1.24-.09-.19-.21-.31-.37-.37-.16-.06-.34-.09-.53-.09-.19.02-.32.09-.39.21s-.1.26-.1.41c-.02.38-.03.76-.05,1.13-.02.38-.03.76-.05,1.16,0,.09,0,.18.03.27.02.09.08.17.18.22.12.05.23.05.33,0,.1-.05.19-.11.26-.18.52-.45.79-.95.82-1.52ZM4.37,19.7c-.02-.79-.03-1.54-.05-2.24-.02-.7-.04-1.4-.08-2.09-.02-.14-.02-.29-.01-.46,0-.17-.12-.26-.37-.26-.45,0-.67.22-.67.67,0,1.43.03,2.85.08,4.28,0,.21.06.38.17.53.11.15.29.21.53.19.26-.03.39-.13.39-.28s0-.27.03-.34ZM6.95,18.02c-.02-.6-.16-1.15-.44-1.66-.27-.51-.63-.98-1.06-1.41-.12-.14-.25-.2-.4-.19-.15,0-.24.14-.27.4-.05.79-.06,1.58-.03,2.37.03.79.09,1.59.15,2.4.03.21.11.34.23.39s.25.02.39-.1c.34-.29.66-.61.94-.94.28-.34.44-.75.48-1.25ZM4.84,11.09c.43.24.85.42,1.25.54.4.12.73.33.99.64.72.81,1.31,1.68,1.78,2.62.46.94.72,1.95.77,3.05.02.46.05.8.09.99.04.2.17.32.37.36s.55.07,1.03.09c1.86.05,2.78-.82,2.78-2.6-.02-.81-.12-1.59-.3-2.35-.18-.76-.42-1.5-.71-2.24-.36-.98-.91-1.74-1.65-2.28-.74-.54-1.56-.99-2.47-1.35-.14-.05-.28-.09-.43-.1-.15-.02-.28.05-.4.21-.4.5-.83.97-1.3,1.4-.47.44-1.08.78-1.82,1.02Z"/>
  <path class="b" d="M24.84,14.07c.14,0,.28,0,.42.01.14,0,.28.01.43.01.53-.02.79.24.76.76-.03.83-.02,1.66.05,2.49.06.83.03,1.66-.09,2.49-.02.16-.04.31-.07.47-.03.16-.07.31-.12.47-.13.44-.26.7-.4.78-.14.08-.44.04-.9-.12-.44-.16-.89-.26-1.33-.29-.45-.04-.9-.03-1.36.04-.2.02-.42.02-.64.01-.22,0-.44-.01-.66-.01-.58-.03-1.16-.04-1.73-.02-.58.02-1.15.09-1.74.21-.49.11-.83.09-1.03-.07-.2-.16-.31-.5-.34-1.02-.08-1.35-.18-2.71-.31-4.08-.13-1.37-.2-2.75-.21-4.13,0-.74.06-1.46.18-2.17.12-.71.22-1.42.32-2.15.09-.79.17-1.58.24-2.37.06-.8.2-1.58.4-2.35.09-.38.22-.74.37-1.09.15-.35.26-.72.32-1.11.03-.17.12-.3.26-.39s.29-.14.45-.18c.2-.03.41-.05.61-.07.2-.02.41-.03.61-.05.06,0,.13,0,.19.02.06.02.1.04.12.07.13.25.27.41.45.46.17.06.36.07.55.04.2-.03.39-.05.58-.05.17,0,.35-.01.53-.03.18-.02.36-.04.53-.04.32.02.54.08.66.19.13.11.19.32.19.61-.02.94-.02,1.89,0,2.82.02.94-.02,1.88-.09,2.82-.05.63-.09,1.27-.13,1.94s.04,1.31.22,1.96c.11.38.17.76.18,1.16,0,.39.01.79.01,1.2,0,.33.04.53.12.6.08.07.29.11.64.11h.39c.13,0,.26,0,.39-.02v.07ZM15.94,14.4c.02,1.05.09,2.1.21,3.14.13,1.04.23,2.08.31,3.12.02.25.1.4.26.45.16.05.33.05.52,0,.65-.17,1.29-.27,1.92-.28.64-.02,1.28.02,1.92.09.36.03.71.03,1.05-.01.34-.04.68-.09,1.03-.15.35-.06.54-.28.59-.64.03-.58.07-1.16.11-1.73.04-.58.08-1.15.13-1.74.05-.47-.16-.7-.61-.68-.35.02-.69,0-1.04-.06-.35-.06-.68-.13-1.02-.22-.39-.13-.64-.25-.74-.39-.1-.13-.15-.4-.13-.81.03-.61.13-1.22.28-1.83.16-.6.27-1.22.33-1.83.08-.69.16-1.39.24-2.09.08-.7.12-1.4.12-2.11.02-.79-.03-1.57-.13-2.36-.1-.79-.15-1.57-.13-2.34,0-.16,0-.31-.01-.46,0-.15-.13-.23-.37-.23-.2-.02-.42,0-.64.02-.22.03-.35.19-.4.47-.05.32-.16.51-.33.58-.17.07-.39.09-.64.06-.14-.02-.28-.04-.43-.07s-.28-.03-.43,0c-.16.02-.32.05-.48.11s-.27.2-.32.44c-.05.22-.1.44-.17.67-.06.23-.11.46-.14.7-.11,1.13-.25,2.26-.43,3.39s-.31,2.25-.4,3.39c-.09,1.13-.11,2.27-.05,3.42ZM18.49,2.05c.14-.05.3-.05.46-.01.17.04.29-.02.37-.18.08-.19.15-.39.2-.59.06-.2.03-.41-.08-.61-.09-.17-.22-.25-.39-.24-.17.02-.33.03-.48.05-.35.02-.59.11-.74.27-.15.17-.22.44-.22.81.02.22.07.35.18.4.1.05.22.06.37.04.14-.02.26,0,.35.06ZM22.45,3.39c.02-.33.03-.66.04-.99,0-.33.01-.66.01-.99,0-.36-.21-.54-.64-.54-.2.02-.33.07-.38.18s-.07.23-.07.39c.03.35.06.69.08,1.02.02.33.04.67.06,1.02.08,1.12.12,2.24.12,3.36s-.09,2.25-.26,3.36c-.11.71-.22,1.42-.33,2.13-.11.71-.23,1.41-.35,2.1-.08.46.1.77.54.94.41.16.81.26,1.22.31.4.05.81.06,1.24.05.22,0,.39.04.5.13.11.09.15.26.12.51-.02.06-.02.14-.01.24,0,.09.05.14.13.14.25.02.5.03.76.04s.5-.03.76-.11c.08-.02.12-.09.12-.24v-.81c0-.28,0-.55-.02-.81,0-.17-.04-.28-.12-.32-.08-.04-.2-.04-.38-.01-.38.08-.75.17-1.12.26-.37.09-.76.13-1.17.09-.3-.03-.5-.1-.61-.21s-.17-.32-.19-.61c-.02-.41-.02-.81-.02-1.22s.03-.8.09-1.19c.09-.58.08-1.16-.05-1.72-.13-.57-.18-1.13-.17-1.7.02-.8.03-1.6.04-2.4,0-.79.04-1.58.08-2.37ZM24.03,19.9c-.02.32-.01.54.01.68.02.14.11.25.25.32.14.07.38.16.71.27.47.14.76-.02.87-.47.13-.46.19-.92.19-1.38s.03-.93.09-1.4c.03-.2.03-.4-.01-.58-.04-.18-.22-.28-.56-.29-.49-.03-.82,0-1,.08-.18.09-.3.3-.34.65-.06.35-.11.7-.13,1.07-.02.37-.05.72-.08,1.05Z"/>
</svg>