<?xml version="1.0" encoding="UTF-8"?>
<svg id="a" data-name="Layer 1" xmlns="http://www.w3.org/2000/svg" viewBox="0 0 121.47 23.55">
  <defs>
    <style>
      .b {
        fill: #000;
        stroke-width: 0px;
      }
    </style>
  </defs>
  <path class="b" d="M11.02,7.02c-.02.22-.03.41-.03.57s-.03.28-.1.39c-.22.36-.27.65-.13.86.14.21.36.41.67.58.7.4,1.22.92,1.53,1.59s.6,1.35.84,2.05c.19.52.33,1.04.43,1.57.09.53.17,1.07.22,1.62.09,1.19-.17,2.09-.76,2.72-.59.63-1.5.93-2.72.92-.33-.02-.64.02-.93.1-.29.09-.52.27-.67.54-.31.55-.7.96-1.17,1.24-.47.28-.98.48-1.51.62-.53.14-1.07.27-1.62.41-.53.12-1.06.14-1.57.06-.52-.08-1.03-.15-1.55-.22-.33-.05-.57-.18-.72-.4s-.27-.48-.33-.79c-.17-.91-.3-1.83-.37-2.74s-.15-1.84-.22-2.77C.16,13.89.07,11.85.02,9.83s0-4.05.18-6.08c.05-.57.09-1.03.13-1.39.03-.36.12-.66.27-.89.15-.23.41-.44.79-.62.38-.18.93-.37,1.65-.58,1.32-.39,2.58-.35,3.76.14,1.19.49,2.12,1.35,2.81,2.56.36.64.69,1.29.98,1.97.29.68.44,1.37.44,2.08ZM3.7,22.4c.6.09,1.22.05,1.87-.1.64-.15,1.28-.35,1.92-.59.7-.27,1.15-.74,1.34-1.39.4-1.22.43-2.41.1-3.56-.38-1.27-.78-2.28-1.21-3.04-.43-.76-.99-1.3-1.68-1.64s-1.62-.49-2.81-.48c-.1,0-.2,0-.3-.03-.09-.02-.15-.09-.17-.21,0-.17.06-.28.18-.31.12-.03.24-.06.36-.08,1.15-.19,2.11-.61,2.87-1.26.76-.65,1.39-1.46,1.87-2.42.34-.62.5-1.24.48-1.88s-.25-1.22-.68-1.75c-.46-.58-1.04-1.06-1.74-1.42-.7-.36-1.44-.58-2.23-.66-.79-.08-1.57.03-2.35.32-.52.22-.77.57-.77,1.03-.02.86-.09,1.72-.22,2.58s-.18,1.72-.14,2.58c.03.74.05,1.47.05,2.2s0,1.47.03,2.2c.07,1.32.16,2.65.27,3.97.11,1.32.26,2.65.45,3.97.09.6.18,1.03.3,1.29.11.26.33.42.66.49.33.07.84.13,1.55.18ZM1.36,6.53c-.02-.29,0-.56.03-.81.03-.25,0-.5-.08-.76-.09-.21-.03-.37.18-.49.34-.21.69-.4,1.03-.57.34-.17.73-.25,1.16-.23.41.02.76.15,1.03.41.27.26.46.58.54.98.09.4.05.82-.1,1.26-.21.58-.53,1.05-.97,1.39-.44.34-.95.58-1.53.72-.89.22-1.34-.14-1.34-1.08,0-.16,0-.3.01-.44,0-.14.02-.27.04-.39ZM2.54,6.35h-.05c.02-.22.03-.44.04-.67,0-.22.02-.45.04-.67v-.21c0-.07-.04-.11-.13-.13-.1-.03-.19-.03-.26.01-.07.04-.11.11-.13.19-.09.45-.17.9-.26,1.35s-.08.92.03,1.4c.03.09.08.17.13.25.05.08.14.11.26.09.14-.02.21-.07.23-.15.02-.09.03-.17.05-.26.02-.21.03-.41.03-.61s0-.4.03-.61ZM1.87,1.17c.5-.03.98-.05,1.44-.05s.94.06,1.42.18c1.68.4,2.87,1.13,3.56,2.19.69,1.07.81,2.37.36,3.92-.07.28.02.5.26.67.41.27.75.35,1.02.22s.43-.43.5-.91c.09-.65,0-1.26-.24-1.83-.25-.57-.49-1.14-.73-1.73-.38-.95-.96-1.72-1.75-2.33-.79-.61-1.7-.96-2.72-1.06-1.02-.09-2.06.15-3.11.74ZM2.67,16.53c.02-.19.04-.4.06-.63s.02-.47-.01-.71c-.03-.4.05-.67.26-.82.21-.16.47-.24.8-.26.65-.07,1.18,0,1.58.21.4.21.76.58,1.07,1.13.24.45.47.89.68,1.34s.29.95.22,1.49c-.05.48-.23.93-.54,1.34-.31.41-.7.73-1.16.97-.46.23-.95.32-1.47.27-.48-.05-.83-.18-1.04-.4s-.34-.56-.37-1.04c-.02-.46-.03-.93-.04-1.41,0-.47-.02-.97-.04-1.48ZM4.66,5.88c.05-.48,0-.89-.13-1.24-.09-.19-.21-.31-.37-.37-.16-.06-.34-.09-.53-.09-.19.02-.32.09-.39.21s-.1.26-.1.41c-.02.38-.03.76-.05,1.13-.02.38-.03.76-.05,1.16,0,.09,0,.18.03.27.02.09.08.17.18.22.12.05.23.05.33,0,.1-.05.19-.11.26-.18.52-.45.79-.95.82-1.52ZM4.37,19.7c-.02-.79-.03-1.54-.05-2.24-.02-.7-.04-1.4-.08-2.09-.02-.14-.02-.29-.01-.46,0-.17-.12-.26-.37-.26-.45,0-.67.22-.67.67,0,1.43.03,2.85.08,4.28,0,.21.06.38.17.53.11.15.29.21.53.19.26-.03.39-.13.39-.28s0-.27.03-.34ZM6.95,18.02c-.02-.6-.16-1.15-.44-1.66-.27-.51-.63-.98-1.06-1.41-.12-.14-.25-.2-.4-.19-.15,0-.24.14-.27.4-.05.79-.06,1.58-.03,2.37.03.79.09,1.59.15,2.4.03.21.11.34.23.39s.25.02.39-.1c.34-.29.66-.61.94-.94.28-.34.44-.75.48-1.25ZM4.84,11.09c.43.24.85.42,1.25.54.4.12.73.33.99.64.72.81,1.31,1.68,1.78,2.62.46.94.72,1.95.77,3.05.02.46.05.8.09.99.04.2.17.32.37.36s.55.07,1.03.09c1.86.05,2.78-.82,2.78-2.6-.02-.81-.12-1.59-.3-2.35-.18-.76-.42-1.5-.71-2.24-.36-.98-.91-1.74-1.65-2.28-.74-.54-1.56-.99-2.47-1.35-.14-.05-.28-.09-.43-.1-.15-.02-.28.05-.4.21-.4.5-.83.97-1.3,1.4-.47.44-1.08.78-1.82,1.02Z"/>
  <path class="b" d="M29.27,14.08c.03.89.03,1.75,0,2.58s-.15,1.64-.33,2.45c-.1.43-.27.86-.49,1.28-.22.42-.55.81-.98,1.17-.27.26-.72.5-1.33.72-.61.22-1.25.39-1.93.51-.68.12-1.29.16-1.82.13-1.25-.1-2.05-.51-2.4-1.24-.14-.29-.24-.58-.3-.86-.06-.28-.1-.58-.12-.89-.05-1.12-.03-2.23.08-3.35.1-1.12.14-2.23.1-3.35-.02-.91.21-1.82.67-2.73.21-.41.45-.82.73-1.21.28-.39.7-.76,1.25-1.08,1.15-.65,2.57-.93,4.25-.82.31.02.58.08.8.19.22.11.42.24.59.37.33.29.58.6.77.91.19.32.29.65.31.99.03.74.08,1.46.14,2.18s.06,1.4-.01,2.05ZM28.68,11.63c0-.31,0-.62.03-.93.02-.31,0-.62-.03-.93-.09-.88-.53-1.49-1.33-1.84s-1.84-.41-3.13-.17c-.38.07-.7.18-.97.32-.27.15-.5.3-.71.48-.74.63-1.28,1.3-1.62,2-.34.7-.53,1.41-.57,2.15-.02,1.07-.06,2.13-.13,3.2s-.14,2.13-.21,3.2c-.02.48.02.95.12,1.41.09.46.26.91.5,1.35.12.22.32.4.59.53.27.13.61.22,1.01.27.38.05.82.05,1.31-.01.5-.06,1-.16,1.49-.3.5-.14.95-.3,1.35-.48.4-.18.69-.36.86-.55.48-.52.82-1.05,1.02-1.6.2-.55.34-1.12.43-1.7.16-1.07.2-2.13.13-3.2-.07-1.07-.12-2.13-.15-3.2ZM27.05,12.25c-.15.82-.2,1.67-.14,2.53s.18,1.72.35,2.58c.05.26.03.5-.06.73s-.31.44-.66.63c-.64.33-1.29.46-1.96.41-.67-.05-1.25-.29-1.73-.72-.79-.74-1.28-1.5-1.46-2.29-.18-.79-.13-1.61.14-2.45.14-.41.35-.81.64-1.2.29-.39.71-.73,1.26-1.04.41-.24.86-.41,1.35-.52.49-.1.92-.11,1.3-.03.65.17.97.63.95,1.37ZM23.83,11.66c-.53.29-.91.59-1.12.9-.22.31-.38.64-.5.98-.33.82-.42,1.63-.27,2.42.15.79.61,1.56,1.4,2.32.4.36.84.57,1.34.62.5.05,1-.06,1.49-.33.26-.14.4-.27.43-.39s-.15-.24-.53-.36c-1.01-.33-1.69-.84-2.04-1.55-.38-.76-.57-1.51-.57-2.26s.12-1.53.36-2.36ZM26.38,13.77c.02-.09.03-.16.04-.23,0-.07.01-.14.01-.21v-.84c0-.28-.02-.56-.05-.84-.02-.14-.09-.26-.21-.36-.12-.1-.33-.16-.62-.18-.29-.03-.51,0-.66.09-.15.1-.26.21-.35.35-.03.07-.07.14-.12.22-.04.08-.08.16-.12.25-.34,1.03-.4,2.08-.16,3.14.09.43.23.84.44,1.24s.63.74,1.26,1.03c.1.05.21.1.32.16s.24.05.4,0c.14-.05.2-.11.19-.18,0-.07-.02-.14-.04-.21-.09-.58-.17-1.16-.24-1.73-.08-.57-.12-1.14-.12-1.7Z"/>
  <path class="b" d="M44.73,14.08c.03.89.03,1.75,0,2.58s-.15,1.64-.33,2.45c-.1.43-.27.86-.49,1.28-.22.42-.55.81-.98,1.17-.27.26-.72.5-1.33.72-.61.22-1.25.39-1.93.51-.68.12-1.29.16-1.82.13-1.25-.1-2.05-.51-2.4-1.24-.14-.29-.24-.58-.3-.86-.06-.28-.1-.58-.12-.89-.05-1.12-.03-2.23.08-3.35.1-1.12.14-2.23.1-3.35-.02-.91.21-1.82.67-2.73.21-.41.45-.82.73-1.21.28-.39.7-.76,1.25-1.08,1.15-.65,2.57-.93,4.25-.82.31.02.58.08.8.19.22.11.42.24.59.37.33.29.58.6.77.91.19.32.29.65.31.99.03.74.08,1.46.14,2.18s.06,1.4-.01,2.05ZM44.14,11.63c0-.31,0-.62.03-.93.02-.31,0-.62-.03-.93-.09-.88-.53-1.49-1.33-1.84s-1.84-.41-3.13-.17c-.38.07-.7.18-.97.32-.27.15-.5.3-.71.48-.74.63-1.28,1.3-1.62,2-.34.7-.53,1.41-.57,2.15-.02,1.07-.06,2.13-.13,3.2s-.14,2.13-.21,3.2c-.02.48.02.95.12,1.41.09.46.26.91.5,1.35.12.22.32.4.59.53.27.13.61.22,1.01.27.38.05.82.05,1.31-.01.5-.06,1-.16,1.49-.3.5-.14.95-.3,1.35-.48.4-.18.69-.36.86-.55.48-.52.82-1.05,1.02-1.6.2-.55.34-1.12.43-1.7.16-1.07.2-2.13.13-3.2-.07-1.07-.12-2.13-.15-3.2ZM42.52,12.25c-.15.82-.2,1.67-.14,2.53s.18,1.72.35,2.58c.05.26.03.5-.06.73s-.31.44-.66.63c-.64.33-1.29.46-1.96.41-.67-.05-1.25-.29-1.73-.72-.79-.74-1.28-1.5-1.46-2.29-.18-.79-.13-1.61.14-2.45.14-.41.35-.81.64-1.2.29-.39.71-.73,1.26-1.04.41-.24.86-.41,1.35-.52.49-.1.92-.11,1.3-.03.65.17.97.63.95,1.37ZM39.3,11.66c-.53.29-.91.59-1.12.9-.22.31-.38.64-.5.98-.33.82-.42,1.63-.27,2.42.15.79.61,1.56,1.4,2.32.4.36.84.57,1.34.62.5.05,1-.06,1.49-.33.26-.14.4-.27.43-.39s-.15-.24-.53-.36c-1.01-.33-1.69-.84-2.04-1.55-.38-.76-.57-1.51-.57-2.26s.12-1.53.36-2.36ZM41.85,13.77c.02-.09.03-.16.04-.23,0-.07.01-.14.01-.21v-.84c0-.28-.02-.56-.05-.84-.02-.14-.09-.26-.21-.36-.12-.1-.33-.16-.62-.18-.29-.03-.51,0-.66.09-.15.1-.26.21-.35.35-.03.07-.07.14-.12.22-.04.08-.08.16-.12.25-.34,1.03-.4,2.08-.16,3.14.09.43.23.84.44,1.24s.63.74,1.26,1.03c.1.05.21.1.32.16s.24.05.4,0c.14-.05.2-.11.19-.18,0-.07-.02-.14-.04-.21-.09-.58-.17-1.16-.24-1.73-.08-.57-.12-1.14-.12-1.7Z"/>
  <path class="b" d="M52,6.4c.14-.02.25-.03.35-.03s.18,0,.27-.03c.24-.03.37.1.39.39.09.43.21.85.39,1.25s.33.8.46,1.2c.09.21.17.3.24.27.08-.03.16-.11.24-.25.19-.32.39-.65.61-.96.21-.32.41-.64.58-.97.43-.76.95-1.27,1.57-1.53.62-.27,1.26-.46,1.93-.58.43-.09.69-.09.79,0s.18.4.24.93c.02.03.03.1.03.18.24.79.29,1.53.15,2.23s-.4,1.37-.8,2.02c-.12.21-.18.41-.17.62,0,.21.06.43.17.67.5,1.17,1.02,2.33,1.56,3.48.54,1.15,1.11,2.29,1.71,3.4.22.41.22.81,0,1.19-.14.27-.28.55-.44.81-.15.27-.27.56-.33.89-.02.14-.07.22-.15.23s-.17.03-.26.03c-.43,0-.85.02-1.28.05-.42.03-.85.12-1.28.26-.12.03-.22.01-.28-.06-.07-.08-.12-.19-.15-.32-.14-.81-.28-1.62-.44-2.44-.16-.82-.31-1.64-.46-2.46-.05-.26-.1-.52-.14-.77s-.09-.51-.14-.77c-.05-.24-.14-.39-.27-.44-.13-.05-.27,0-.43.18-.29.38-.59.76-.89,1.15s-.61.77-.91,1.15c-.12.14-.18.28-.18.43s.03.3.08.45c.19.6.34,1.21.46,1.83.12.62.26,1.23.41,1.83.03.17.04.32.01.44s-.13.18-.32.18c-.48,0-.97.08-1.46.23-.49.15-.98.23-1.48.23-.07,0-.15,0-.25.03s-.18.03-.27.03c-.34.02-.55-.03-.62-.14-.07-.11-.1-.38-.08-.81.09-1.32.13-2.66.13-4.01s-.06-2.69-.18-4.03c-.07-.84-.14-1.68-.21-2.51s-.15-1.67-.23-2.51c-.03-.4,0-.79.12-1.18.11-.4.23-.77.35-1.14.09-.24.22-.34.4-.3.18.04.33.05.45.01ZM51.49,8.56c.19,0,.37-.09.54-.27.17-.18.31-.39.41-.64.1-.25.13-.49.08-.71,0-.12-.05-.19-.15-.21-.22-.14-.45-.14-.68,0-.23.14-.39.35-.48.64-.02.09-.03.17-.04.24,0,.08-.03.16-.07.24-.14.52,0,.75.39.7ZM52.05,22.74c.12-.04.24-.06.35-.08s.22-.03.32-.03c.45.02.64-.25.59-.8-.02-.24-.03-.49-.03-.75s-.03-.51-.1-.75c-.15-.55-.18-1.03-.08-1.43.1-.4.37-.77.8-1.09.5-.4.94-.85,1.33-1.37s.77-1.03,1.15-1.55c.15-.21.32-.32.49-.35.17-.03.34-.03.52-.01.19.02.28.11.27.27,0,.16,0,.31.01.45.19.98.37,1.95.55,2.93s.36,1.94.53,2.9c.07.46.29.66.67.59.27-.03.54-.07.81-.12.27-.04.54-.07.81-.09.17-.03.27-.1.3-.18.03-.09.01-.22-.04-.39-.41-1.37-.89-2.71-1.43-4.01-.54-1.3-1.08-2.59-1.61-3.88-.14-.31-.14-.58,0-.82.29-.43.53-.89.71-1.38.18-.49.38-.96.61-1.43.21-.41.1-.62-.31-.62-.27-.02-.56-.02-.85-.01-.29,0-.58,0-.88-.01-.22-.02-.43.03-.61.16s-.36.27-.53.46c-.64.67-1.2,1.41-1.69,2.22-.49.81-.95,1.65-1.38,2.53-.05.1-.1.22-.16.36-.05.14-.15.19-.28.16-.12-.03-.18-.13-.19-.29,0-.15-.02-.3-.04-.44-.1-.72-.2-1.44-.3-2.17s-.18-1.44-.27-2.17c-.05-.53-.29-.76-.72-.69-.22.05-.33.16-.32.33,0,.17.02.34.04.52.19,2.03.33,4.06.43,6.11.09,2.04.07,4.09-.06,6.13-.05.58.15.84.59.77ZM52.49,9.67l-.1.05c.09.63.17,1.26.26,1.88.09.62.17,1.24.26,1.86.02.07.03.15.04.24s.07.12.19.06c.09-.03.18-.17.27-.43.09-.25.17-.51.23-.77.06-.27.06-.44.01-.53-.17-.39-.36-.79-.57-1.19-.21-.39-.4-.79-.59-1.19ZM52.49,8.51c.02.05.03.1.03.14s0,.08.03.12c.21.46.4.94.59,1.42.19.48.4.94.64,1.37.03.07.08.14.13.22.05.08.12.08.21.01.09-.05.12-.12.1-.22-.02-.09-.03-.17-.05-.24-.09-.6-.25-1.16-.49-1.69-.24-.52-.46-1.05-.64-1.59-.02-.07-.04-.14-.06-.21s-.08-.1-.17-.1c-.07.02-.11.06-.13.14-.02.08-.04.15-.08.22-.02.07-.03.14-.05.21-.02.07-.03.14-.05.21ZM54.04,22.3c.17-.03.34-.06.5-.08.16-.02.32-.03.48-.05.09-.02.16-.05.22-.1.06-.05.07-.14.04-.26-.12-.58-.24-1.18-.35-1.78-.11-.6-.27-1.18-.48-1.73-.02-.09-.05-.15-.09-.19-.04-.04-.11-.05-.19-.01-.24.09-.45.3-.62.63-.17.33-.22.67-.16.99.14.7.21,1.41.23,2.11.03.36.17.52.41.46ZM57,6.19c-.15.03-.28.11-.39.22-.1.11-.2.23-.28.35-.34.43-.66.9-.94,1.42-.28.51-.58,1.01-.89,1.49-.09.12-.12.26-.1.41.02.15.03.3.05.44.02.07.03.14.04.22,0,.08.05.13.12.17.05.02.1,0,.14-.05.04-.05.08-.1.12-.15.52-.67,1.06-1.29,1.62-1.86.09-.1.16-.21.22-.32s.1-.23.12-.37c.03-.33.07-.65.1-.97.03-.32.06-.65.08-.99ZM58.6,8.44v.03h1.06c.1,0,.19-.02.27-.06.08-.04.1-.15.07-.32-.03-.36-.07-.73-.12-1.1-.04-.37-.09-.73-.14-1.09-.02-.1-.05-.2-.09-.28-.04-.09-.12-.14-.22-.15-.33-.05-.64-.02-.95.1-.31.12-.61.26-.9.41-.19.1-.29.28-.3.54,0,.26-.03.5-.06.72-.03.39-.05.68-.04.85,0,.17.09.27.23.31.15.03.39.05.73.05h.46ZM62.57,19.18c-.03-.09-.07-.17-.1-.26-.03-.09-.07-.16-.1-.23-.57-1.05-1.1-2.11-1.61-3.2s-1.01-2.17-1.51-3.27c-.02-.09-.04-.17-.08-.27-.03-.1-.09-.14-.18-.14-.1,0-.18.05-.22.14-.04.1-.09.18-.14.27-.07.12-.1.24-.09.35,0,.11.04.23.09.35.29.65.55,1.32.79,2.01.23.69.5,1.36.81,2.01.26.55.48,1.12.66,1.71s.37,1.18.58,1.76c.03.09.07.19.12.32.04.13.11.13.19.01.17-.22.33-.46.48-.71s.25-.54.32-.86Z"/>
  <path class="b" d="M77.7,15.34c.15,0,.31,0,.46.01.15,0,.31.01.46.01.58-.02.86.26.82.82-.03.91-.02,1.82.05,2.72.07.9.03,1.81-.1,2.72-.02.17-.04.34-.08.52-.03.17-.08.34-.13.51-.14.48-.28.76-.44.85-.15.09-.48.04-.98-.13-.48-.17-.97-.28-1.46-.32-.49-.04-.98-.03-1.48.04-.22.02-.46.02-.7.01-.24,0-.48-.01-.72-.01-.64-.04-1.27-.04-1.89-.03-.63.02-1.26.09-1.89.23-.53.12-.91.09-1.12-.08-.22-.17-.34-.54-.37-1.11-.09-1.48-.2-2.96-.33-4.46-.14-1.49-.22-3-.23-4.51,0-.81.06-1.6.19-2.37.13-.77.24-1.55.35-2.34.1-.86.19-1.72.26-2.59.07-.87.21-1.72.44-2.56.1-.41.24-.81.4-1.19.16-.38.28-.78.35-1.21.03-.19.13-.33.28-.43s.32-.16.49-.19c.22-.03.45-.06.67-.08.22-.02.45-.03.67-.05.07,0,.14,0,.21.03.07.02.11.04.13.08.14.28.3.44.49.5.19.06.39.07.61.04.21-.03.43-.05.63-.05.19,0,.38-.01.58-.04.2-.03.39-.04.58-.04.34.02.58.09.72.21.14.12.21.34.21.67-.02,1.03-.02,2.06,0,3.08.02,1.02-.02,2.05-.1,3.08-.05.69-.1,1.39-.14,2.11s.04,1.43.25,2.14c.12.41.18.83.19,1.26,0,.43.01.87.01,1.31,0,.36.04.58.13.66.09.08.32.11.7.11h.43c.15,0,.29,0,.43-.03v.08ZM67.98,15.7c.02,1.15.09,2.29.23,3.43.14,1.13.25,2.27.33,3.4.02.27.11.44.28.49.17.05.36.05.57,0,.7-.19,1.41-.29,2.1-.31.7-.02,1.4.02,2.1.1.4.03.78.03,1.15-.01.37-.04.74-.1,1.12-.17.38-.07.59-.3.64-.7.03-.63.07-1.27.12-1.89.04-.63.09-1.26.14-1.9.05-.51-.17-.76-.67-.75-.38.02-.76,0-1.13-.06-.38-.06-.75-.14-1.11-.24-.43-.14-.7-.28-.81-.43-.11-.15-.16-.44-.14-.89.03-.67.14-1.34.31-2,.17-.66.29-1.33.36-2,.09-.76.17-1.52.26-2.28.09-.76.13-1.53.13-2.31.02-.86-.03-1.72-.14-2.58-.11-.86-.16-1.71-.14-2.55,0-.17,0-.34-.01-.5,0-.16-.14-.25-.4-.25-.22-.02-.46,0-.7.03-.24.03-.39.21-.44.52-.05.34-.17.55-.36.63-.19.08-.42.1-.7.06-.16-.02-.31-.04-.46-.08s-.31-.03-.46,0c-.17.02-.35.06-.53.12s-.3.22-.35.48c-.05.24-.11.49-.18.73-.07.25-.12.5-.15.76-.12,1.24-.28,2.47-.46,3.7s-.33,2.46-.44,3.7c-.1,1.24-.12,2.48-.05,3.74ZM70.76,2.22c.15-.05.32-.06.5-.01.18.04.31-.02.4-.19.09-.21.16-.42.22-.64.06-.22.03-.45-.09-.67-.1-.19-.24-.27-.43-.26-.18.02-.36.03-.53.05-.38.02-.65.12-.81.3-.16.18-.25.48-.25.89.02.24.08.39.19.44.11.05.24.06.4.04.15-.03.28,0,.39.06ZM75.09,3.69c.02-.36.03-.72.04-1.08,0-.36.01-.72.01-1.08,0-.39-.23-.59-.7-.59-.22.02-.36.08-.41.19s-.08.25-.08.43c.03.38.07.75.09,1.11.03.36.05.73.07,1.11.09,1.22.13,2.44.13,3.67s-.1,2.45-.28,3.67c-.12.77-.24,1.55-.36,2.32-.12.77-.25,1.54-.39,2.29-.09.5.11.84.59,1.03.45.17.89.28,1.33.34.44.05.89.07,1.35.05.24,0,.42.05.54.14.12.1.16.28.13.56-.02.07-.02.15-.01.26,0,.1.06.15.14.15.27.02.55.03.82.04s.55-.03.82-.12c.09-.02.13-.1.13-.26v-.89c0-.3,0-.6-.03-.89,0-.19-.04-.3-.13-.35-.09-.04-.22-.05-.41-.01-.41.09-.82.18-1.22.28-.4.1-.83.14-1.28.1-.33-.03-.55-.11-.67-.23s-.19-.34-.21-.67c-.02-.45-.03-.89-.03-1.33s.03-.87.1-1.3c.1-.63.09-1.26-.05-1.88-.14-.62-.2-1.24-.18-1.85.02-.88.03-1.75.04-2.62,0-.87.04-1.73.09-2.59ZM76.82,21.71c-.02.34-.01.59.01.75.03.16.12.27.27.35.15.08.41.18.77.3.52.15.83-.02.95-.52.14-.5.21-1,.21-1.51s.03-1.02.1-1.53c.03-.22.03-.43-.01-.63-.04-.2-.25-.3-.61-.32-.53-.03-.9,0-1.09.09-.2.1-.32.33-.37.71-.07.38-.12.77-.14,1.17-.03.4-.06.79-.09,1.15Z"/>
  <path class="b" d="M91.23,8.92c-.33-.1-.64-.12-.94-.06s-.6.12-.89.17c-.26.03-.45.02-.57-.05-.12-.07-.16-.25-.13-.54.05-.27.02-.58-.1-.9-.14-.36-.16-.73-.06-1.11.09-.38.07-.75-.07-1.11-.03-.1.02-.17.16-.21.38-.14.75-.28,1.11-.43s.74-.25,1.13-.3c.24-.03.42-.01.54.06.12.08.19.26.21.55.03.48.09.96.15,1.43.07.47.13.95.18,1.43.03.19.05.37.04.55,0,.18-.16.31-.45.37-.09.02-.12.05-.12.1,0,.05.03.12.07.21.91,1.84,1.51,3.73,1.79,5.68.28,1.95.33,3.94.14,5.97,0,.09,0,.16-.03.21-.02.27-.04.55-.08.82-.03.27-.25.46-.64.57-.27.07-.54.15-.8.24-.26.1-.54.07-.85-.06-.24-.1-.5-.11-.77-.01-.27.09-.54.16-.8.19-.43.03-.7,0-.82-.09-.12-.09-.17-.36-.16-.79.03-1.41.05-2.82.04-4.24,0-1.42-.02-2.83-.04-4.24,0-.34-.01-.7-.04-1.06s-.06-.71-.09-1.06c-.09-.84.25-1.4,1.01-1.68.31-.12.62-.24.93-.37s.63-.22.95-.27ZM91.25,12.38c-.07-.26-.13-.5-.17-.74-.04-.23-.09-.46-.14-.68-.02-.09-.04-.17-.06-.26s-.11-.11-.24-.08c-.29.07-.6.1-.93.1s-.61.1-.85.28c-.17.12-.21.3-.1.53.1.23.14.44.1.63-.02.02-.03.04-.03.08,0,1.61.01,3.23.04,4.83.03,1.61.01,3.21-.04,4.81,0,.19.03.32.09.4.06.08.2.11.43.09.22-.02.44-.06.66-.12.21-.06.43-.08.66-.06.29.02.47-.04.54-.17s.09-.3.08-.5c-.03-.57-.03-1.14.03-1.71.05-.58.08-1.15.08-1.71,0-.96,0-1.92-.01-2.87,0-.95-.05-1.9-.12-2.85ZM88.91,10.6c.29-.07.57-.12.82-.17.26-.04.52-.1.77-.17.19-.03.31-.13.37-.28.06-.16.07-.29.04-.41-.03-.14-.12-.18-.24-.14-.13.04-.24.08-.35.11-.17.07-.34.13-.5.19-.16.06-.33.13-.5.22-.12.05-.22.12-.31.21-.09.09-.12.23-.1.44ZM90.76,5.83c.31.07.46.01.44-.17-.02-.18-.02-.35,0-.5.02-.12.02-.24,0-.36-.02-.12-.12-.16-.31-.13-.33.02-.64.08-.94.18s-.57.27-.81.49c-.12.1-.19.24-.22.43-.03.18,0,.34.06.48.03.09.11.09.23.03.12-.07.23-.11.34-.13.19-.03.38-.08.58-.13.2-.05.41-.11.63-.18ZM89.01,7.64c.05.4.09.67.13.82.03.15.1.24.21.24.1,0,.27,0,.52-.04.29-.05.44-.23.44-.54.02-.24,0-.48-.03-.73-.03-.25-.07-.49-.1-.73,0-.07,0-.14-.03-.21-.02-.07-.09-.1-.21-.1-.74-.03-1.06.32-.95,1.06,0,.05,0,.1.01.14,0,.04.01.07.01.09ZM91.46,6.68c-.02-.14-.03-.27-.05-.39-.02-.12-.15-.17-.39-.16-.22.02-.35.09-.39.21-.03.12-.04.26-.03.41.02.22.03.45.05.68.02.23.03.47.03.71.02.16.06.25.14.28.08.03.18.05.3.05.14,0,.25-.03.32-.08.08-.05.11-.16.09-.34-.02-.24-.03-.48-.04-.71,0-.23-.02-.46-.04-.68ZM91.38,9.75c-.12.19-.17.36-.15.51.02.16.03.31.05.46.07.33.14.65.22.97.08.32.12.64.14.96.03.77.06,1.54.06,2.31,0,.76.02,1.53.04,2.31.02.76,0,1.51-.05,2.25-.05.75-.05,1.5,0,2.26,0,.07,0,.15-.01.23,0,.08.06.15.19.18.26.02.51-.07.76-.26.25-.19.38-.41.4-.67.12-1.39.16-2.79.13-4.19-.03-1.4-.26-2.79-.67-4.16-.15-.53-.3-1.06-.45-1.58-.15-.53-.36-1.05-.66-1.59Z"/>
  <path class="b" d="M99.35,16.37c.07-.34.16-.68.27-1s.12-.66.04-1.01c-.02-.12.06-.2.23-.23.29-.07.58-.12.86-.16.28-.03.58-.04.89-.03.29,0,.46.11.52.34.07.38.12.76.15,1.13.03.58.12,1.17.26,1.77.14.59.36,1.18.67,1.76.09.17.17.26.25.26s.17-.06.27-.18c.4-.4.74-.82,1.04-1.28.3-.45.47-.95.5-1.48.03-.4-.03-.79-.18-1.17-.16-.39-.34-.77-.57-1.15-.26-.46-.59-.89-.99-1.29-.4-.39-.83-.77-1.28-1.13-.33-.28-.62-.56-.88-.86-.26-.3-.51-.61-.75-.91-.1-.16-.16-.36-.17-.63,0-.27.03-.53.13-.79.09-.26.21-.44.35-.54.17-.14.35-.27.53-.4.18-.13.39-.22.63-.27.05-.02.1-.04.14-.08.04-.03.07-.06.09-.08.4-.36.9-.55,1.52-.58.62-.03,1.19.13,1.73.48.22.12.39.3.5.53.11.23.13.44.06.63-.07.22-.23.41-.49.57-.26.16-.52.22-.77.21-.24-.02-.39.08-.44.28-.05.29,0,.57.15.82s.34.51.57.75c.57.58,1.11,1.18,1.64,1.78.52.6,1,1.22,1.43,1.86.5.74.8,1.49.9,2.24.1.76.04,1.51-.18,2.27-.26,1.01-.73,1.91-1.42,2.68-.22.27-.5.45-.82.53-.33.08-.7.09-1.11.04-.26-.03-.46.02-.59.15-.29.34-.7.56-1.24.64s-1.09.06-1.69-.09c-.59-.15-1.13-.39-1.6-.73-.47-.34-.8-.77-.99-1.29-.27-.76-.46-1.5-.54-2.23-.09-.73.03-1.44.36-2.13ZM105.74,17.92c-.07.38-.19.68-.36.9s-.33.44-.49.64c-.26.33-.57.56-.93.7s-.82.15-1.37.03c-.45-.1-.82-.26-1.11-.46-.29-.21-.49-.49-.59-.85-.05-.19-.09-.38-.1-.58-.02-.2-.03-.39-.05-.58-.02-.34-.05-.69-.1-1.04-.05-.35-.07-.7-.05-1.04,0-.19-.09-.29-.28-.31-.07-.02-.14-.03-.22-.04-.08,0-.13.03-.17.11-.1.38-.23.74-.39,1.08-.15.34-.26.71-.31,1.11-.07.57-.03,1.13.12,1.69.15.56.34,1.12.58,1.69.21.48.52.85.94,1.11.42.26.91.45,1.48.57.29.05.59.08.89.09s.57-.06.81-.19c.48-.27.9-.59,1.26-.94s.63-.75.8-1.2c.24-.65.48-1.31.71-1.96.23-.65.34-1.33.32-2.04,0-.38,0-.75-.01-1.12,0-.37-.13-.73-.37-1.07-.67-.98-1.43-1.89-2.29-2.73-.33-.32-.64-.65-.94-.98-.3-.33-.54-.68-.71-1.06-.19-.41-.03-.64.46-.69.24-.03.49-.06.76-.09.27-.03.53-.03.79-.01.29.02.51-.04.64-.17.14-.13.27-.26.39-.4.1-.16.13-.31.09-.48-.04-.16-.13-.31-.24-.45-.17-.19-.37-.3-.61-.34-.23-.03-.43.03-.58.21-.21.17-.49.25-.85.23-.45-.03-.88-.03-1.29.03-.41.05-.76.23-1.06.54-.33.34-.49.75-.48,1.21,0,.46.18.89.53,1.29.27.31.57.61.88.89.31.28.63.57.95.86,1.05.89,1.74,1.85,2.09,2.86.34,1.02.5,2.01.46,2.99ZM100.48,15.16c.22.07.43.1.63.09.2,0,.4-.02.61-.04.17-.02.26-.1.26-.23-.02-.43-.09-.69-.21-.77-.12-.09-.43-.09-.93-.03-.07.02-.14.03-.22.04-.08,0-.16.02-.24.04-.28.02-.4.09-.39.22.02.13.02.26,0,.4,0,.15.06.23.18.23s.22.02.31.05ZM101.85,15.42c-.07,0-.14,0-.22.01-.08,0-.16.01-.24.01-.22-.03-.37-.01-.44.07-.07.08-.1.2-.1.37-.02.46,0,.93.08,1.41.07.47.13.94.18,1.41.05.34.22.64.52.9.17.16.36.24.55.25.2,0,.43-.03.68-.12.21-.09.31-.18.31-.3s-.06-.24-.18-.4c-.03-.07-.06-.13-.08-.18-.27-.5-.47-1.01-.59-1.55-.12-.53-.22-1.07-.31-1.6v-.17c0-.06-.05-.1-.15-.12ZM102.83,20.01c.57.1,1,.03,1.31-.23.24-.21.46-.43.67-.66s.37-.49.49-.76c.19-.36.23-.78.13-1.26-.31.58-.65,1.13-1.02,1.64-.37.51-.9.93-1.58,1.28ZM104.45,6.61c-.38-.09-.72-.09-1.03-.03-.31.07-.5.22-.57.44.31,0,.62.01.94.04.32.03.54-.13.66-.45ZM108.73,18.51c.03-.08.06-.17.08-.24.02-.08.03-.15.05-.22.17-.69.16-1.36-.03-2.01-.19-.65-.49-1.3-.9-1.93-.41-.6-.87-1.19-1.38-1.76-.51-.58-1.04-1.13-1.59-1.66-.24-.24-.44-.5-.61-.77-.16-.27-.24-.57-.22-.9,0-.03,0-.07-.03-.1s-.07-.06-.15-.08c-.38-.03-.64.02-.77.17-.14.15-.13.36.03.66.03.05.07.1.1.14.03.04.07.09.1.14.31.48.68.93,1.11,1.34.43.41.84.84,1.24,1.29.55.58.99,1.19,1.31,1.83.33.63.45,1.31.36,2.04-.05.5-.13.99-.23,1.48-.1.49-.24.97-.41,1.46-.14.4-.28.79-.43,1.18-.15.4-.38.75-.71,1.06-.15.16-.1.25.18.28.58.09,1.04-.05,1.37-.41.43-.41.75-.88.95-1.39.21-.52.4-1.04.57-1.57Z"/>
  <path class="b" d="M116.97,8.72c.24-.55.55-.98.92-1.3.37-.32.74-.62,1.12-.89.12-.09.24-.16.36-.21.12-.05.25-.08.39-.08.17,0,.3.05.39.14.09.1.12.26.1.5-.02.39.11.56.39.49.24-.07.39-.06.45.01s.11.28.14.61c.03.34.07.68.1,1.02.03.34.08.68.13,1.02.05.36-.04.47-.28.34-.26-.14-.5-.19-.73-.17-.23.03-.47.06-.71.09-.26.03-.38.23-.36.59.07,1.15.14,2.3.22,3.44.08,1.14.18,2.29.3,3.44.02.17.04.34.08.5.03.16.06.33.08.5.03.16.05.3.05.44s-.09.22-.26.26c-.1.04-.14.16-.1.36.09.4.13.8.14,1.2,0,.4.04.8.09,1.2.05.4-.06.64-.33.72-.09.02-.18.05-.27.09-.09.04-.18.1-.27.17-.27.22-.57.31-.89.26-.32-.05-.64-.15-.97-.28-.19-.1-.39-.16-.59-.16s-.4,0-.59-.03c-.33-.03-.56-.15-.71-.35s-.23-.51-.24-.94c0-.98-.02-1.96-.06-2.95-.04-.99-.1-1.98-.17-2.98-.03-.48-.05-.97-.05-1.46s-.02-.98-.05-1.46c-.02-.29-.06-.46-.12-.51-.06-.05-.19-.04-.4.03-.38.12-.59.15-.63.08s-.11-.37-.19-.9c-.07-.58-.05-1.07.05-1.46.1-.39.4-.59.9-.6.31-.03.46-.3.44-.8-.02-.29,0-.57.05-.84.05-.27.23-.42.54-.45.17-.03.34-.11.49-.22s.32-.2.49-.27c.34-.15.47,0,.39.46-.03.22-.03.44.01.66.04.22.11.44.19.68ZM115.79,8.44c-.07.02-.14.03-.22.05-.08.02-.16.04-.24.08-.19.03-.28.15-.26.36.03.27,0,.47-.12.59s-.24.2-.4.23c-.43.03-.7.21-.82.51-.12.31-.15.74-.08,1.29.05.33.09.52.13.58.03.06.16.06.39-.01.4-.12.63-.14.71-.06.08.08.12.4.14.96v.23c-.02,1.43.03,2.86.14,4.3.11,1.44.18,2.88.22,4.31,0,.31.04.51.13.61s.24.16.46.19c.24.02.49.06.73.12s.49.15.73.27c.38.17.64.19.79.05.15-.14.23-.45.24-.93.02-.51,0-1.03-.06-1.53-.06-.51-.09-1.02-.09-1.53.02-1.37.1-2.72.24-4.05.15-1.32.28-2.65.4-3.97.03-.34.1-.61.21-.8.1-.19.29-.29.57-.31.22-.03.34-.17.36-.41v-.98c0-.38-.13-.51-.39-.41-.43.19-.85.38-1.26.57-.41.19-.82.39-1.24.59-.19.09-.31.11-.37.08-.06-.03-.11-.2-.14-.49-.03-.29-.1-.48-.19-.55-.09-.08-.24-.07-.43.01-.05.02-.1.03-.14.03s-.09,0-.14.03ZM115.76,8.15c.14-.03.29-.07.45-.12.16-.04.25-.2.27-.48.03-.31-.04-.42-.23-.33-.15.07-.31.14-.45.21-.15.07-.29.14-.43.21-.07.05-.13.12-.18.21-.05.09-.06.19-.03.31.03.12.09.16.15.12.07-.04.14-.06.21-.06.03.02.07.02.1,0s.08-.03.13-.05ZM117.36,8.87c.45-.19.88-.37,1.29-.56.41-.18.82-.38,1.21-.6.14-.07.2-.22.18-.44-.02-.22-.05-.42-.1-.59-.05-.15-.13-.21-.23-.17-.1.04-.2.08-.28.12-.33.19-.64.4-.95.64-.31.24-.59.52-.85.85-.05.07-.1.16-.14.27-.04.11-.08.27-.12.48ZM119.19,12.2c-.15.98-.29,1.96-.41,2.95-.12.99-.19,1.99-.21,3,0,.17-.02.36-.05.56-.03.2,0,.36.1.5.09.16.2.19.35.1s.28-.12.4-.1c.03,0,.07,0,.1-.01.03,0,.07,0,.1.01.24,0,.33-.16.26-.49-.12-.7-.21-1.4-.27-2.1s-.13-1.39-.19-2.08c-.03-.39-.07-.79-.09-1.19-.03-.39-.06-.78-.09-1.16ZM119.58,19.96c-.05-.29-.18-.41-.39-.36-.12.05-.26.08-.41.09-.16,0-.22.17-.21.48.05.53.08,1.07.08,1.62.02.62.06.96.13,1.03.07.07.31,0,.72-.23.07-.03.13-.07.18-.1s.08-.11.08-.23c-.02-.4-.04-.78-.08-1.16-.03-.38-.07-.76-.1-1.13ZM120.97,8.05c-.03-.24-.12-.35-.26-.33-.1.02-.19.05-.27.09-.08.04-.12.14-.12.3,0,.17,0,.34.03.5.02.16.03.33.03.5,0,.4.03.64.08.72s.22.15.52.18c.17.05.25-.03.23-.26-.03-.29-.07-.58-.12-.86-.04-.28-.08-.56-.12-.84Z"/>
</svg>